<svg xmlns="http://www.w3.org/2000/svg" width="272.176" height="78.737" viewBox="127.736 7.002 272.176 78.737"><path d="M186.908 64.676c-4.318 4.463-10.242 7.403-16.93 7.848-14.057.938-26.238-9.503-27.56-23.443-.01-.14-.024-.278-.037-.417-.008-.105-.02-.208-.03-.31-.004-.09-.004-.18-.01-.27-.02-.345-.034-.686-.04-1.03v-.064c-.167-8.507 3.86-16.92 11.453-22.007 7.733-5.18 17.246-5.634 25.135-2.04 3.69 1.665 6.936 4.17 9.482 7.285-9.008-12.836-26.666-16.18-39.757-7.41-6.73 4.51-11.026 11.34-12.402 18.72-2.083 9.362-.546 19.514 5.214 28.116 11.17 16.67 33.737 21.128 50.407 9.957 2.14-1.428 4.15-2.978 5.88-4.747l-10.802-10.187" fill="#F69220"/><path d="M178.012 7.003l-1.646 6.93c4.59 1.662 8.77 4.23 12.32 7.49 5.703 4.882 9.466 12.02 10.005 20.103.647 9.696-3.565 18.59-10.553 24.31l4.394 4.143c3.685-3.108 6.803-7.002 9.07-11.607 8.866-17.998 1.462-39.78-16.537-48.645-2.31-1.14-4.652-2.11-7.05-2.725" fill="#F9AC1B"/><path d="M143.272 53.755l-1.6.48c1.456 8.905 7.046 17 15.76 21.292 4.148 2.044 8.555 3.023 12.89 3.023 3.262 0 6.48-.554 9.52-1.624 4.615-1.445 8.945-3.79 12.69-6.947l-4.394-4.145c-4.147 3.393-9.27 5.668-14.937 6.327-1.656.33-3.35.5-5.055.5-3.835 0-7.73-.857-11.402-2.667-6.867-3.383-11.56-9.407-13.47-16.24" fill="#F07322"/><path d="M164.16 11.794c-.804 0-1.612.026-2.427.08-20.022 1.334-35.172 18.65-33.838 38.668.17 2.568.506 5.084 1.173 7.465l6.822-2.042c-.86-4.81-.73-9.72.32-14.428 1.377-7.38 5.673-14.21 12.403-18.72 4.94-3.31 10.53-4.895 16.062-4.895 3.517 0 7.01.64 10.294 1.886l1.396-5.875c-3.826-1.385-7.937-2.14-12.206-2.14" fill="#F27821"/><path d="M164.674 17.922c-5.53 0-11.12 1.584-16.062 4.894-6.73 4.51-11.026 11.34-12.402 18.72-1.05 4.71-1.18 9.618-.32 14.43l5.78-1.73c-.87-5.314-.265-10.917 2.025-16.176 1.768-5.16 5.174-9.807 10.057-13.078 4.418-2.96 9.418-4.377 14.363-4.377 2.186 0 4.36.277 6.468.82l.384-1.617c-3.283-1.245-6.776-1.885-10.293-1.886" fill="#ED5423"/><path d="M176.366 13.933l-1.397 5.875c5.007 1.896 9.533 5.197 12.933 9.77 3.614 4.124 5.952 9.42 6.344 15.312.51 7.644-2.354 14.73-7.317 19.806l1.208 1.14c6.987-5.72 11.2-14.614 10.554-24.31-.54-8.084-4.303-15.22-10.006-20.102-3.55-3.26-7.73-5.83-12.32-7.49" fill="#EE5F23"/><path d="M186.93 64.696c-1.084 1.106-2.267 2.117-3.536 3.018-.593.427-1.204.828-1.834 1.204-2.58 1.56-5.412 2.657-8.36 3.244 5.668-.658 10.79-2.934 14.938-6.327l-1.21-1.14M143.697 38.06c-2.29 5.26-2.894 10.86-2.025 16.175l1.602-.48c-.31-1.11-.547-2.243-.707-3.39-.097-.66-.17-1.332-.214-2.013-.044-.68-.063-1.354-.056-2.023.017-2.817.493-5.61 1.402-8.27m31.272-18.252l-.384 1.616c1.327.34 2.627.787 3.888 1.334.615.265 1.22.55 1.81.86 2.895 1.494 5.48 3.522 7.62 5.96-3.4-4.573-7.926-7.873-12.934-9.77" fill="#EB4424"/><g fill="#020202"><path d="M166.202 23.587h3.913l17.44 39.113h-5.7l-5.184-11.527H160.08l-4.86 11.527h-5.723l16.707-39.113zm8.18 22.634l-6.275-14.088-5.82 14.09h12.095zM224.272 23.81h5.29V62.7h-4.79l-26.003-29.953V62.7h-5.234V23.81h4.508l26.23 30.208v-30.21zM234.57 23.754h32.492v4.953h-13.556V62.7h-5.598V28.707H234.57v-4.953zM272.49 62.7V23.81h9.745c3.934 0 7.058.972 9.37 2.922 2.31 1.95 3.464 4.583 3.464 7.907 0 2.266-.568 4.22-1.7 5.873-1.133 1.655-2.757 2.886-4.872 3.704 1.244.816 2.458 1.93 3.648 3.342 1.185 1.407 2.858 3.866 5.013 7.374 1.35 2.21 2.437 3.87 3.254 4.987l2.058 2.78h-6.626l-1.698-2.56c-.052-.094-.165-.252-.33-.475l-1.086-1.532-1.722-2.84-1.862-3.035c-1.15-1.6-2.2-2.87-3.162-3.813-.957-.944-1.82-1.627-2.59-2.044-.772-.415-2.07-.625-3.892-.625h-1.447V62.7h-5.566zm7.238-34.16h-1.67v12.28h2.114c2.82 0 4.757-.24 5.806-.725 1.047-.48 1.864-1.21 2.45-2.184.585-.974.88-2.082.88-3.33 0-1.222-.328-2.332-.978-3.324-.65-.993-1.565-1.69-2.743-2.105-1.176-.405-3.132-.61-5.86-.61zM306.763 23.81h22.048v4.954h-16.48v11.86h15.924v4.984H312.33V57.69h17.01v4.956h-22.578V23.81zM335.27 23.81h22.05v4.954h-16.48v11.86h15.923v4.984H340.84V57.69h17.01v4.956h-22.58V23.81zM394.71 23.81h5.208V62.7h-5.6V32.436L382.36 47.473h-1.028l-12.097-15.037V62.7h-5.568V23.81h5.273l12.92 15.97 12.85-15.97z"/></g><g fill="#020202"><path d="M204.983 68.15h1.45v10.108h-1.45v-10.11zM218.783 68.15h1.375v10.108h-1.245l-6.76-7.787v7.788h-1.36v-10.11h1.172L218.783 76v-7.85zM232.432 68.15h1.377v10.108h-1.248l-6.76-7.787v7.788h-1.36v-10.11h1.172L232.432 76v-7.85zM243.008 68.002c1.563 0 2.862.497 3.904 1.485 1.04.99 1.56 2.23 1.56 3.72 0 1.49-.527 2.727-1.575 3.703-1.05.977-2.37 1.467-3.97 1.467-1.522 0-2.79-.49-3.805-1.467-1.018-.977-1.524-2.202-1.524-3.675 0-1.51.51-2.758 1.53-3.748 1.026-.988 2.32-1.485 3.88-1.485zm.058 1.377c-1.157 0-2.107.36-2.852 1.084-.745.725-1.117 1.646-1.117 2.77 0 1.092.373 2 1.12 2.725.748.724 1.684 1.085 2.807 1.085 1.127 0 2.07-.37 2.824-1.107.753-.74 1.13-1.66 1.13-2.757 0-1.07-.377-1.97-1.13-2.704-.755-.732-1.682-1.097-2.782-1.097zM258.716 68.15h1.442l-4.276 10.153h-.328l-4.356-10.154h1.455l3.043 7.1 3.02-7.1zM266.568 68.09h1.02l4.532 10.168h-1.482l-1.348-2.996h-4.314l-1.264 2.996h-1.488l4.344-10.167zm2.126 5.885l-1.632-3.663-1.512 3.663h3.144zM274.44 68.133h8.447v1.29h-3.525v8.835h-1.454v-8.835h-3.467v-1.29zM286.343 68.15h1.45v10.108h-1.45v-10.11zM297.076 68.002c1.56 0 2.86.497 3.9 1.485 1.04.99 1.56 2.23 1.56 3.72 0 1.49-.524 2.727-1.574 3.703s-2.372 1.467-3.966 1.467c-1.526 0-2.794-.49-3.812-1.467-1.014-.977-1.522-2.202-1.522-3.675 0-1.51.512-2.758 1.532-3.748 1.025-.988 2.314-1.485 3.882-1.485zm.054 1.377c-1.157 0-2.107.36-2.852 1.084s-1.117 1.646-1.117 2.77c0 1.092.374 2 1.12 2.725.75.724 1.686 1.085 2.808 1.085 1.126 0 2.07-.37 2.824-1.107.755-.74 1.132-1.66 1.132-2.757 0-1.07-.377-1.97-1.132-2.704-.754-.732-1.682-1.097-2.782-1.097zM314.424 68.15h1.375v10.108h-1.247l-6.76-7.787v7.788h-1.362v-10.11h1.176L314.424 76v-7.85z"/></g><g fill="#020202"><path d="M326.296 68.15h2.788c1.067 0 1.882.236 2.45.714.566.48.85 1.13.85 1.954 0 .836-.287 1.495-.856 1.984-.573.487-1.412.73-2.517.73h-1.93v4.726h-.784v-10.11zm.784.65v4.083h1.88c.846 0 1.487-.18 1.924-.538.44-.358.66-.86.66-1.514 0-.62-.213-1.114-.644-1.48-.43-.368-1.046-.55-1.847-.55h-1.973zM339.918 68.076l4.673 10.182h-.82l-1.6-3.495h-4.94l-1.598 3.495h-.82l4.676-10.182h.43zm1.957 6.038l-2.18-4.765-2.17 4.764h4.35zM347.89 68.15h2.592c1.085 0 1.915.235 2.49.705.572.467.86 1.105.86 1.905 0 1.17-.638 1.987-1.925 2.463.334.158.782.673 1.35 1.54l2.284 3.495h-.924l-1.762-2.77c-.585-.928-1.045-1.505-1.373-1.736-.33-.228-.81-.342-1.44-.342h-1.37v4.848h-.78v-10.11zm.78.65v3.96h1.682c.852 0 1.504-.175 1.958-.52.453-.346.677-.833.677-1.466 0-.62-.23-1.105-.687-1.453-.46-.347-1.12-.52-1.978-.52h-1.652zM365.722 68.15v.65h-3.792v9.458h-.79V68.8h-3.792v-.65h8.374zM378.12 68.15v10.108h-.645l-7.688-8.835v8.835h-.78v-10.11h.663l7.67 8.836V68.15h.78zM388.04 68.15v.65h-4.736v4.044h4.613v.66h-4.613v4.104h4.85v.65h-5.63v-10.11h5.515zM391.853 68.15h2.59c1.087 0 1.916.235 2.49.705.574.467.862 1.105.862 1.905 0 1.17-.642 1.987-1.928 2.463.336.158.782.673 1.348 1.54l2.285 3.495h-.925l-1.76-2.77c-.586-.928-1.047-1.505-1.374-1.736-.33-.228-.807-.342-1.437-.342h-1.37v4.848h-.78v-10.11zm.78.65v3.96h1.68c.855 0 1.506-.175 1.96-.52.45-.346.673-.833.673-1.466 0-.62-.227-1.105-.687-1.453-.46-.347-1.116-.52-1.976-.52h-1.65z"/></g></svg>
