<?xml version="1.0" encoding="UTF-8" standalone="no"?><!DOCTYPE svg PUBLIC "-//W3C//DTD SVG 1.1//EN" "http://www.w3.org/Graphics/SVG/1.1/DTD/svg11.dtd"><svg width="100%" height="100%" viewBox="0 0 538 174" version="1.1" xmlns="http://www.w3.org/2000/svg" xmlns:xlink="http://www.w3.org/1999/xlink" xml:space="preserve" style="fill-rule:evenodd;clip-rule:evenodd;stroke-linejoin:round;stroke-miterlimit:1.41421;"><g><path d="M452.409,107.483l34.838,-34.828l31.355,31.345l-67.213,67.192l-62.708,0l32.374,-32.364l-34.838,-34.828l31.355,-31.345l34.837,34.828Z" style="fill:#f45656;"/><path d="M347.896,72.655l66.192,66.173l-31.354,31.344l-34.838,-34.827l-34.838,34.827l-31.354,-31.344l66.192,-66.173Z" style="fill:#f45656;"/><path d="M243.382,37.828l66.192,66.172l-66.192,66.172l-31.354,-31.344l34.838,-34.828l-34.838,-34.828l31.354,-31.344Z" style="fill:#f45656;"/><path d="M208.544,3l31.354,31.345l-34.838,34.827l34.838,34.828l-66.192,66.172l-31.354,-31.344l34.838,-34.828l-34.838,-34.828l66.192,-66.172Z" style="fill:#1a171b;"/><path d="M107.514,104l-34.838,-34.828l66.192,-66.172l31.354,31.345l-34.838,34.827l34.838,34.828l-66.192,66.172l-31.354,-31.344l34.838,-34.828Z" style="fill:#1a171b;"/><path d="M69.192,3l31.354,31.345l-34.838,34.827l34.838,34.828l-31.354,31.345l-66.192,-66.173l66.192,-66.172Z" style="fill:#1a171b;"/></g></svg>
